<svg width="500" height="500" viewBox="0 0 500 500" fill="none" xmlns="http://www.w3.org/2000/svg">
<path d="M474.006 338.392C426.005 451.128 298.143 514.284 187.26 497.248C169.217 494.476 119.752 486.218 75.9577 447.261C-8.34953 372.267 -26.3792 223.768 41.6287 119.117C91.1266 42.9499 179.857 -0.227056 264.168 1.93281C282.328 2.39793 351.927 5.26513 413.092 55.5731C422.076 62.9623 441.892 80.5212 459.75 108.377C501.684 173.789 505.288 264.921 474.006 338.392Z" fill="url(#paint0_linear_31_7)"/>
<path d="M486.118 78.8458C485.812 75.7723 481.569 75.1498 480.401 78.0103C469.109 105.666 437.223 177.259 396.69 212.572C330.693 270.07 279.764 369.815 311.203 428.035C311.203 428.035 519.486 413.733 486.118 78.8458Z" fill="#BDD0FB"/>
<path opacity="0.43" d="M475.82 118.967C475.641 119.892 475.419 120.642 475.217 121.458L474.567 123.852L473.215 128.621C472.292 131.793 471.321 134.95 470.349 138.106C468.384 144.412 466.34 150.693 464.238 156.956C460.012 169.473 455.446 181.875 450.694 194.205C445.959 206.543 440.878 218.749 435.54 230.842C430.192 242.93 424.67 254.948 418.754 266.778C406.972 290.456 393.888 313.517 379.222 335.564C371.775 346.508 364.036 357.264 355.689 367.549C347.271 377.77 338.413 387.64 328.873 396.821C328.665 397.02 328.335 397.014 328.135 396.807C327.939 396.606 327.94 396.287 328.133 396.086L328.138 396.081C337.28 386.573 345.893 376.591 353.997 366.209C362.131 355.849 369.654 345.026 376.883 334.024C384.108 323.015 390.887 311.717 397.406 300.275C403.922 288.827 409.96 277.117 415.93 265.375C427.773 241.835 438.35 217.673 448.253 193.246C453.179 181.021 457.858 168.695 462.317 156.289C464.556 150.089 466.738 143.869 468.843 137.622L471.926 128.229L473.418 123.519L474.138 121.158C474.361 120.381 474.614 119.549 474.781 118.861L474.808 118.748C474.876 118.471 475.155 118.301 475.433 118.368C475.703 118.433 475.871 118.698 475.82 118.967Z" fill="white"/>
<path d="M389.6 2.90772C388.352 -0.136042 383.833 0.513399 383.512 3.78638C380.405 35.4285 369.654 118.145 339.038 166.456C289.187 245.117 267.571 362.329 317.373 412.223C317.373 412.223 525.574 334.557 389.6 2.90772Z" fill="#91B3FA"/>
<path opacity="0.43" d="M391.311 46.968C391.411 47.9687 391.413 48.7998 391.455 49.6945L391.521 52.3348L391.594 57.6108C391.619 61.1274 391.589 64.6429 391.559 68.1585C391.474 75.1891 391.301 82.2182 391.064 89.2459C390.563 103.3 389.679 117.339 388.584 131.361C387.509 145.386 386.04 159.381 384.273 173.34C382.495 187.295 380.518 201.232 378.082 215.096C373.265 242.829 366.928 270.326 358.67 297.267C354.399 310.69 349.773 324.01 344.383 337.033C338.899 350.013 332.86 362.766 325.914 375.022C325.76 375.294 325.415 375.389 325.143 375.236C324.878 375.086 324.78 374.755 324.918 374.487L324.921 374.48C331.352 362.006 337.101 349.212 342.209 336.163C347.354 323.126 351.735 309.803 355.761 296.387C359.782 282.964 363.262 269.383 366.431 255.733C369.596 242.078 372.192 228.299 374.712 214.51C379.635 186.902 383.074 159.043 385.75 131.117C387.058 117.15 388.083 103.154 388.86 89.1445C389.26 82.1401 389.596 75.1314 389.844 68.1194L390.133 57.6005L390.225 52.3417L390.241 49.7147C390.232 48.8546 390.238 47.9283 390.199 47.1783L390.193 47.0515C390.177 46.7429 390.415 46.4798 390.724 46.4641C391.025 46.4491 391.282 46.6731 391.311 46.968Z" fill="white"/>
<path d="M0.156738 86.6348C0.156738 69.9476 13.7187 56.4199 30.4482 56.4199H288.048C302.26 56.4199 313.978 67.5289 314.701 81.6862L333.715 454.213C334.281 465.291 325.538 474.636 314.419 474.838L19.1765 480.19C8.72861 480.38 0.156738 471.984 0.156738 461.56V86.6348Z" fill="url(#paint1_linear_31_7)"/>
<path opacity="0.6" d="M62.3269 473.858H62.3177L29.2818 473.432C18.2352 473.289 9.24854 464.208 9.24854 453.189V403.437C9.24854 403.048 9.56441 402.734 9.95386 402.734C10.3433 402.734 10.6592 403.048 10.6592 403.437V453.189C10.6592 463.442 19.0213 471.891 29.3002 472.025L62.3356 472.451C62.7251 472.455 63.0368 472.775 63.0319 473.163C63.0268 473.548 62.7121 473.858 62.3269 473.858Z" fill="white"/>
<path opacity="0.6" d="M9.95337 388.73C9.56392 388.73 9.24805 388.415 9.24805 388.026V379.969C9.24805 379.58 9.56392 379.265 9.95337 379.265C10.3428 379.265 10.6587 379.58 10.6587 379.969V388.026C10.6587 388.415 10.343 388.73 9.95337 388.73Z" fill="white"/>
<path d="M21.2609 62.1541C21.2294 56.8152 25.9366 52.683 31.2405 53.4005C66.4182 58.1588 187.385 72.8755 287.398 65.2175C291.959 64.8684 295.918 68.3152 296.16 72.8717L316.098 447.059C316.371 452.19 312.444 456.577 307.302 456.881C265.238 459.364 92.0054 468.962 30.2161 462.507C26.4555 462.114 23.6009 458.956 23.5787 455.184L21.2609 62.1541Z" fill="url(#paint2_linear_31_7)"/>
<path opacity="0.6" d="M25.4044 71.5308C25.3741 66.393 29.904 62.4165 35.0084 63.1069C68.8612 67.6861 185.273 81.8486 281.521 74.4788C285.91 74.1428 289.719 77.46 289.952 81.8448L309.139 441.942C309.403 446.879 305.623 451.102 300.674 451.394C260.194 453.783 93.4853 463.02 34.0226 456.808C30.4036 456.43 27.6564 453.391 27.6351 449.761L25.4044 71.5308Z" fill="white"/>
<g opacity="0.6">
<path d="M270.283 106.014C270.74 106.014 271.1 105.642 271.085 105.187L270.964 101.662C270.948 101.207 270.562 100.829 270.106 100.822L155.796 99.0885C155.34 99.0816 155.109 99.4201 155.283 99.8409L157.522 105.249C157.696 105.67 158.212 106.014 158.668 106.014H270.283V106.014Z" fill="white"/>
</g>
<g opacity="0.6">
<path d="M155.796 113.481C155.34 113.474 155.109 113.812 155.283 114.233L157.522 119.641C157.696 120.062 158.212 120.407 158.668 120.407H270.284C270.74 120.407 271.101 120.034 271.085 119.579L270.964 116.054C270.949 115.599 270.562 115.221 270.106 115.214L155.796 113.481Z" fill="white"/>
</g>
<g opacity="0.6">
<path d="M155.796 128.082C155.34 128.075 155.109 128.413 155.283 128.834L157.522 134.243C157.696 134.663 158.212 135.008 158.668 135.008H270.284C270.74 135.008 271.101 134.635 271.085 134.181L270.964 130.655C270.949 130.2 270.562 129.822 270.106 129.815L155.796 128.082Z" fill="white"/>
</g>
<g opacity="0.6">
<path d="M270.711 200.003C271.167 200.003 271.516 199.631 271.485 199.177L271.252 195.649C271.222 195.195 270.824 194.82 270.368 194.816L48.3357 193.071C47.8794 193.067 47.7387 193.356 48.023 193.712L52.5281 199.355C52.8123 199.711 53.4182 200.003 53.8746 200.003H270.711Z" fill="white"/>
</g>
<g opacity="0.6">
<path d="M48.3362 207.463C47.8799 207.459 47.7392 207.748 48.0234 208.104L52.5286 213.747C52.8128 214.103 53.4187 214.395 53.8751 214.395H270.711C271.167 214.395 271.516 214.023 271.486 213.569L271.252 210.041C271.222 209.587 270.824 209.212 270.368 209.209L48.3362 207.463Z" fill="white"/>
</g>
<path d="M47.6997 236.93C52.933 236.53 62.7331 236.345 68.1277 236.27C70.4136 236.238 72.4184 237.782 72.9543 239.999C73.9954 244.304 75.4317 251.78 75.2509 259.701C75.1967 262.073 73.2487 263.966 70.8701 263.941L50.9628 263.727C48.5146 263.701 46.4822 261.834 46.2544 259.402L44.5042 240.722C44.3232 238.79 45.7599 237.078 47.6997 236.93Z" fill="url(#paint3_linear_31_7)"/>
<g opacity="0.6">
<path d="M82.3276 244.51C81.8716 244.491 81.5541 244.843 81.6219 245.293L82.7541 252.813C82.8219 253.263 83.2508 253.631 83.707 253.631H136.433C136.889 253.631 137.258 253.259 137.252 252.804L137.188 247.623C137.182 247.168 136.804 246.78 136.348 246.761L82.3276 244.51Z" fill="white"/>
</g>
<path opacity="0.6" d="M156.153 236.93C161.386 236.53 171.187 236.345 176.581 236.27C178.867 236.238 180.872 237.782 181.408 239.999C182.449 244.304 183.885 251.78 183.705 259.701C183.65 262.073 181.702 263.966 179.324 263.941L159.416 263.727C156.968 263.701 154.936 261.834 154.708 259.402L152.958 240.722C152.777 238.79 154.213 237.078 156.153 236.93Z" fill="white"/>
<g opacity="0.6">
<path d="M190.781 244.51C190.325 244.491 190.007 244.843 190.075 245.293L191.207 252.813C191.275 253.263 191.704 253.631 192.16 253.631H244.886C245.342 253.631 245.711 253.259 245.705 252.804L245.641 247.623C245.635 247.168 245.257 246.78 244.801 246.761L190.781 244.51Z" fill="white"/>
</g>
<path d="M70.2619 311.046C70.2455 311.046 70.2285 311.046 70.2117 311.046L51.8419 310.87C49.2175 310.845 47.0508 309.043 46.8022 306.681L45.1875 291.307C45.0927 290.404 45.3737 289.512 45.9785 288.794C46.6554 287.991 47.6801 287.487 48.7893 287.411C50.3368 287.306 52.5165 287.12 54.8237 286.924C59.6822 286.511 65.7291 285.998 69.1312 285.956C71.5996 285.943 73.6935 287.4 74.2751 289.545C75.2321 293.074 75.1481 299.754 74.966 306.871C74.9071 309.183 72.8016 311.046 70.2619 311.046ZM48.8859 288.815C48.1565 288.864 47.4906 289.187 47.0586 289.7C46.7023 290.122 46.5361 290.641 46.5907 291.16L48.2055 306.534C48.3791 308.185 49.9485 309.445 51.856 309.463L70.2256 309.639C70.2377 309.639 70.25 309.639 70.2625 309.639C72.0425 309.639 73.5165 308.388 73.5564 306.835C73.7356 299.826 73.8213 293.259 72.9138 289.911C72.507 288.412 70.9427 287.368 69.1494 287.363C65.798 287.404 59.7797 287.916 54.944 288.326C52.6302 288.523 50.4448 288.708 48.8859 288.815Z" fill="white"/>
<path opacity="0.6" d="M50.8614 290.401C54.7206 290.138 63.1079 289.289 67.086 289.24C68.7716 289.219 70.2499 290.234 70.6452 291.692C71.4129 294.524 71.3113 300.168 71.178 305.377C71.138 306.937 69.7015 308.182 67.9475 308.166L53.2676 308.025C51.4625 308.008 49.9636 306.78 49.7956 305.181L48.505 292.895C48.3716 291.624 49.4311 290.499 50.8614 290.401Z" fill="white"/>
<g opacity="0.6">
<path d="M86.3965 300.838C86.9282 302.849 88.7602 304.245 90.8458 304.227L260.811 302.782C262.733 302.765 264.272 301.184 264.23 299.266C264.189 297.402 262.666 295.91 260.797 295.901L90.8277 295.128C87.8274 295.114 85.6313 297.944 86.3965 300.838Z" fill="white"/>
</g>
<path d="M51.6438 292.812C53.0077 292.014 54.7626 292.49 55.533 293.868L59.1564 300.346C59.519 300.995 60.4678 300.954 60.773 300.276L69.7598 280.32C70.208 279.324 71.6944 279.661 71.678 280.752C71.5861 286.856 69.9625 298.46 60.1841 308.172C60.1841 308.172 54.7955 306.083 50.4557 296.578C49.8289 295.205 50.3395 293.576 51.6438 292.812Z" fill="url(#paint4_linear_31_7)"/>
<path d="M70.2619 350.317C70.2455 350.317 70.2285 350.317 70.2117 350.317L51.8419 350.141C49.2175 350.116 47.0508 348.315 46.8022 345.952L45.1875 330.578C45.0927 329.676 45.3737 328.784 45.9785 328.066C46.6554 327.263 47.6801 326.759 48.7893 326.682C50.3368 326.577 52.5165 326.392 54.8237 326.196C59.6822 325.783 65.7291 325.27 69.1312 325.227C69.1559 325.227 69.1807 325.227 69.2051 325.227C71.6209 325.227 73.6993 326.694 74.2751 328.816C75.2321 332.346 75.1481 339.026 74.966 346.143C74.9071 348.454 72.8016 350.317 70.2619 350.317ZM48.8859 328.086C48.1565 328.136 47.4906 328.459 47.0586 328.971C46.7023 329.394 46.5361 329.913 46.5907 330.431L48.2055 345.805C48.3791 347.457 49.9485 348.716 51.856 348.735L70.2256 348.91C70.2377 348.91 70.25 348.91 70.2625 348.91C72.0425 348.91 73.5165 347.659 73.5564 346.107C73.7356 339.098 73.8213 332.53 72.9138 329.183C72.5068 327.684 70.9203 326.606 69.1493 326.634C65.7982 326.676 59.7798 327.187 54.9442 327.598C52.6302 327.794 50.4448 327.98 48.8859 328.086Z" fill="white"/>
<path opacity="0.6" d="M50.8614 329.673C54.7206 329.41 63.1079 328.56 67.086 328.511C68.7716 328.49 70.2499 329.506 70.6452 330.964C71.4129 333.795 71.3113 339.439 71.178 344.649C71.138 346.209 69.7015 347.454 67.9475 347.437L53.2676 347.296C51.4625 347.279 49.9636 346.051 49.7956 344.452L48.505 332.167C48.3716 330.896 49.4311 329.77 50.8614 329.673Z" fill="white"/>
<g opacity="0.6">
<path d="M86.3965 340.109C86.9282 342.12 88.7602 343.516 90.8458 343.498L260.811 342.053C262.733 342.036 264.272 340.455 264.23 338.537C264.189 336.673 262.666 335.181 260.797 335.172L90.8277 334.399C87.8274 334.385 85.6313 337.215 86.3965 340.109Z" fill="white"/>
</g>
<path d="M51.6438 332.084C53.0077 331.285 54.7626 331.762 55.533 333.139L59.1564 339.618C59.519 340.266 60.4678 340.225 60.773 339.548L69.7598 319.591C70.208 318.596 71.6944 318.932 71.678 320.023C71.5861 326.128 69.9625 337.731 60.1841 347.444C60.1841 347.444 54.7955 345.355 50.4557 335.849C49.8289 334.477 50.3395 332.847 51.6438 332.084Z" fill="url(#paint5_linear_31_7)"/>
<path d="M70.2619 389.589C70.2455 389.589 70.2285 389.589 70.2117 389.589L51.8419 389.413C49.2175 389.388 47.0508 387.587 46.8022 385.224L45.1875 369.85C45.0927 368.947 45.3737 368.055 45.9789 367.337C46.656 366.534 47.6801 366.03 48.7893 365.953C50.3368 365.848 52.5165 365.663 54.8237 365.467C59.6822 365.054 65.7291 364.541 69.1312 364.498C69.1559 364.498 69.1807 364.498 69.2051 364.498C71.6209 364.498 73.6993 365.965 74.2751 368.087C75.2321 371.616 75.1481 378.297 74.966 385.414C74.9071 387.726 72.8016 389.589 70.2619 389.589ZM48.8859 367.358C48.1565 367.407 47.4906 367.73 47.0586 368.243C46.7023 368.665 46.5361 369.184 46.5907 369.703L48.2055 385.077C48.3791 386.729 49.9485 387.988 51.8556 388.006L70.2256 388.182C70.2377 388.182 70.25 388.182 70.2625 388.182C72.0425 388.182 73.5165 386.931 73.5564 385.378C73.7356 378.369 73.8213 371.801 72.9138 368.454C72.5068 366.955 70.9203 365.872 69.1493 365.905C65.7982 365.947 59.7798 366.458 54.9442 366.869C52.6302 367.066 50.4448 367.251 48.8859 367.358Z" fill="white"/>
<path opacity="0.6" d="M50.8614 368.945C54.7206 368.681 63.1079 367.832 67.086 367.783C68.7716 367.762 70.2499 368.777 70.6452 370.235C71.4129 373.067 71.3113 378.711 71.178 383.92C71.138 385.48 69.7015 386.725 67.9475 386.709L53.2676 386.568C51.4625 386.551 49.9636 385.323 49.7956 383.724L48.505 371.438C48.3716 370.167 49.4311 369.042 50.8614 368.945Z" fill="white"/>
<g opacity="0.6">
<path d="M86.3965 379.38C86.9282 381.392 88.7602 382.787 90.8458 382.77L260.811 381.324C262.733 381.308 264.272 379.726 264.23 377.809C264.189 375.944 262.666 374.452 260.797 374.444L90.8277 373.67C87.8274 373.657 85.6313 376.487 86.3965 379.38Z" fill="white"/>
</g>
<path d="M70.2619 428.86C70.2455 428.86 70.2285 428.86 70.2117 428.86L51.8419 428.684C49.2175 428.659 47.0508 426.859 46.8022 424.496L45.1875 409.122C45.0927 408.219 45.3737 407.326 45.9789 406.608C46.656 405.805 47.6801 405.301 48.7893 405.225C50.3368 405.12 52.5165 404.934 54.8237 404.738C59.6822 404.325 65.7291 403.812 69.1312 403.77C69.1559 403.77 69.1807 403.769 69.2051 403.769C71.6209 403.769 73.6993 405.236 74.2751 407.359C75.2321 410.888 75.1481 417.568 74.966 424.685C74.9071 426.997 72.8016 428.86 70.2619 428.86ZM48.8859 406.629C48.1565 406.678 47.4906 407.001 47.0586 407.514C46.7023 407.936 46.5361 408.455 46.5907 408.974L48.2055 424.348C48.3791 426 49.9485 427.259 51.8556 427.277L70.2256 427.453C70.2377 427.453 70.25 427.453 70.2625 427.453C72.0425 427.453 73.5165 426.202 73.5564 424.649C73.7356 417.64 73.8213 411.073 72.9138 407.726C72.5068 406.227 70.9203 405.138 69.1493 405.177C65.7982 405.219 59.7798 405.73 54.9442 406.14C52.6302 406.337 50.4448 406.522 48.8859 406.629Z" fill="white"/>
<path opacity="0.6" d="M50.8614 408.216C54.7206 407.953 63.1079 407.104 67.086 407.054C68.7716 407.033 70.2499 408.049 70.6452 409.507C71.4129 412.338 71.3113 417.982 71.178 423.192C71.138 424.752 69.7015 425.997 67.9475 425.98L53.2676 425.839C51.4625 425.822 49.9636 424.594 49.7956 422.995L48.505 410.71C48.3716 409.439 49.4311 408.314 50.8614 408.216Z" fill="white"/>
<g opacity="0.6">
<path d="M86.3965 418.652C86.9282 420.664 88.7602 422.059 90.8458 422.041L260.811 420.596C262.733 420.579 264.272 418.998 264.23 417.08C264.189 415.216 262.666 413.724 260.797 413.715L90.8277 412.942C87.8274 412.928 85.6313 415.758 86.3965 418.652Z" fill="white"/>
</g>
<path d="M51.6438 410.627C53.0077 409.829 54.7626 410.305 55.533 411.683L59.1564 418.161C59.519 418.81 60.4678 418.769 60.773 418.091L69.7598 398.135C70.208 397.139 71.6944 397.476 71.678 398.567C71.5861 404.671 69.9625 416.274 60.1841 425.987C60.1841 425.987 54.7955 423.898 50.4557 414.393C49.8289 413.02 50.3395 411.391 51.6438 410.627Z" fill="url(#paint6_linear_31_7)"/>
<path d="M51.6438 370.323C53.0077 369.525 54.7626 370.001 55.533 371.379L59.1564 377.858C59.519 378.506 60.4678 378.465 60.773 377.788L69.7598 357.831C70.208 356.835 71.6944 357.172 71.678 358.263C71.5861 364.367 69.9625 375.971 60.1841 385.683C60.1841 385.683 54.7955 383.594 50.4557 374.089C49.8289 372.716 50.3395 371.087 51.6438 370.323Z" fill="url(#paint7_linear_31_7)"/>
<path d="M125.042 152.493C140.844 136.731 140.844 111.175 125.042 95.4124C109.239 79.6501 83.6186 79.65 67.8162 95.4124C52.0139 111.175 52.0139 136.731 67.8163 152.493C83.6186 168.255 109.239 168.255 125.042 152.493Z" fill="#91B3FA"/>
<path d="M119.597 112.8H106.151V101.247C106.151 98.5351 103.947 96.3364 101.228 96.3364H91.3741C88.6551 96.3364 86.4509 98.5351 86.4509 101.247V112.8H73.0052C70.2862 112.8 68.082 114.999 68.082 117.711V129.133C68.082 131.845 70.2862 134.044 73.0052 134.044H86.4509V145.597C86.4509 148.309 88.6551 150.507 91.3741 150.507H101.228C103.947 150.507 106.151 148.309 106.151 145.597V134.044H119.597C122.316 134.044 124.52 131.845 124.52 129.133V117.711C124.52 114.999 122.316 112.8 119.597 112.8Z" fill="white"/>
<path d="M175.225 5.62796C165.92 -0.828909 157.829 -0.701043 152.134 0.975306C146.938 2.50449 143.571 7.50793 144.065 12.8887L146.521 39.6303L175.749 42.2176C175.749 42.2176 193.473 18.2908 175.225 5.62796ZM162.371 27.2019C158.346 27.2019 155.083 23.9473 155.083 19.9326C155.083 15.9176 158.346 12.663 162.371 12.663C166.396 12.663 169.659 15.9176 169.659 19.9326C169.659 23.9473 166.396 27.2019 162.371 27.2019Z" fill="url(#paint8_linear_31_7)"/>
<path d="M149.441 28.3813C149.08 28.3813 148.773 28.1072 148.739 27.7416L148.348 23.4828C148.312 23.096 148.598 22.7539 148.986 22.7181C149.381 22.6812 149.717 22.9676 149.752 23.355L150.144 27.6137C150.179 28.0006 149.893 28.3427 149.506 28.3784C149.484 28.3806 149.462 28.3813 149.441 28.3813ZM148.674 20.0356C148.314 20.0356 148.006 19.7615 147.973 19.3959L147.675 16.163C147.204 11.0371 150.438 6.2645 155.364 4.81431C158.852 3.78722 162.446 3.64023 166.046 4.37677C166.427 4.45432 166.673 4.82675 166.595 5.20728C166.517 5.58728 166.147 5.83039 165.763 5.75483C162.391 5.06643 159.027 5.20314 155.763 6.16368C151.481 7.42432 148.67 11.576 149.08 16.0353L149.377 19.2682C149.413 19.6551 149.127 19.9972 148.739 20.0329C148.717 20.0349 148.695 20.0356 148.674 20.0356Z" fill="#BDD0FB"/>
<path d="M106.63 56.9124V43.4675C106.63 38.8264 110.487 35.1092 115.137 35.2681L208.069 38.444C212.193 38.5849 215.533 41.8321 215.78 45.941L216.556 58.8596L106.63 56.9124Z" fill="url(#paint9_linear_31_7)"/>
<path d="M141.282 40.3337H137.285C136.896 40.3337 136.58 40.019 136.58 39.6303C136.58 39.2415 136.896 38.9268 137.285 38.9268H141.282C141.671 38.9268 141.987 39.2415 141.987 39.6303C141.987 40.0191 141.671 40.3337 141.282 40.3337Z" fill="#BDD0FB"/>
<path d="M111.66 52.6903C111.271 52.6903 110.955 52.3756 110.955 51.9868V46.5478C110.955 42.3453 114.383 38.9268 118.596 38.9268H133.289C133.678 38.9268 133.994 39.2415 133.994 39.6303C133.994 40.0191 133.678 40.3337 133.289 40.3337H118.596C115.16 40.3337 112.366 43.1215 112.366 46.5476V51.9866C112.366 52.3756 112.05 52.6903 111.66 52.6903Z" fill="#BDD0FB"/>
<path d="M70.8635 59.9618C71.0877 55.3061 74.9375 51.6463 79.6104 51.6461L242.119 51.6416C247.962 51.6414 252.958 55.8358 253.954 61.579L254.092 62.3717C255.184 68.6623 250.328 74.416 243.928 74.416H77.2039C73.3735 74.416 70.3211 71.2214 70.505 67.4052L70.8635 59.9618Z" fill="url(#paint10_linear_31_7)"/>
<path d="M147.765 459.811C147.682 459.729 147.594 459.647 147.511 459.565C147.575 459.597 147.657 459.679 147.765 459.811Z" fill="url(#paint11_linear_31_7)"/>
<path fill-rule="evenodd" clip-rule="evenodd" d="M341.309 469.59C341.309 469.59 325.971 481.473 330.841 481.119C335.71 480.766 349.714 479.905 349.985 478.982C350.256 478.06 348.704 469.423 347.38 469.59C346.057 469.757 341.309 470.899 341.309 469.59Z" fill="url(#paint12_linear_31_7)"/>
<path d="M367.063 131.081C367.063 131.081 380.08 139.684 379.258 160.487C378.716 174.196 387.136 187.739 394.27 198.826C403.341 212.923 420.983 227.78 409.637 245.8C402.518 257.105 385.342 274.304 370.635 272.729C363.118 271.924 352.622 264.143 349.062 257.549C326.234 215.263 327.128 154.933 337.162 143.306C347.197 131.679 367.063 131.081 367.063 131.081Z" fill="url(#paint13_linear_31_7)"/>
<path fill-rule="evenodd" clip-rule="evenodd" d="M349.974 396.15C349.974 396.15 349.974 453.856 347.251 470.11C347.112 470.944 346.474 471.615 345.638 471.756C344.874 471.885 343.832 471.856 342.586 471.305C341.959 471.028 341.543 470.416 341.459 469.738L333.765 397.161L349.974 396.15Z" fill="url(#paint14_linear_31_7)"/>
<path fill-rule="evenodd" clip-rule="evenodd" d="M356.837 468.309L355.935 470.519L355.288 478.477C355.339 479.595 356.244 480.534 357.463 480.721C359.127 480.977 362.561 481.236 364.838 481.061C366.621 480.923 367.738 479.253 367.04 477.762L364.355 472.022C363.953 471.163 363.219 470.504 362.321 470.195L356.837 468.309Z" fill="url(#paint15_linear_31_7)"/>
<path fill-rule="evenodd" clip-rule="evenodd" d="M354.027 396.15C354.027 396.15 354.027 454.618 356.816 470.496C356.908 471.017 357.275 471.455 357.78 471.615C358.591 471.873 359.955 472.029 361.682 471.181C362.13 470.961 362.445 470.527 362.506 470.032L370.237 397.161L354.027 396.15Z" fill="url(#paint16_linear_31_7)"/>
<path d="M341.604 184.491C341.604 184.491 331.508 192.84 329.656 205.14C327.804 217.44 313.722 229.956 327.769 243.566C327.769 243.566 289.956 285.462 319.184 329.195C322.653 365.275 324.936 400.659 324.936 400.659H377.202C377.202 400.659 399.933 284.11 372.263 271.04C376.172 249.258 379.734 205.527 378.767 199.903C377.613 193.184 356.426 178.536 341.604 184.491Z" fill="url(#paint17_linear_31_7)"/>
<path d="M341.75 169.832V188.773C341.75 190.305 342.869 191.609 344.388 191.837C346.904 192.215 350.795 192.507 354.136 191.505C355.674 191.044 356.623 189.507 356.315 187.934L352.774 169.832H341.75Z" fill="url(#paint18_linear_31_7)"/>
<path d="M334.736 142.093C334.736 142.093 322.71 174.081 337.993 177.965C355.979 182.537 362.044 158.836 362.044 158.836C362.044 158.836 346.26 113.604 334.736 142.093Z" fill="url(#paint19_linear_31_7)"/>
<path d="M329.862 139.443C329.137 142.072 331.504 144.512 334.167 143.902C336.848 143.287 340.147 142.732 343.003 142.843C362.295 143.592 354.779 156.087 354.779 158.087C354.779 162.176 358.808 155.958 359.038 157.337C359.539 160.336 357.194 169.435 357.194 169.435C357.194 169.435 369.561 166.833 373.569 160.836C377.578 154.838 373.068 141.343 371.565 136.345C370.062 131.347 360.04 126.349 354.528 126.849C349.601 127.295 333.859 124.946 329.862 139.443Z" fill="url(#paint20_linear_31_7)"/>
<path d="M356.532 160.835C356.532 160.835 358.035 153.338 362.044 154.838C366.053 156.337 359.037 164.834 356.532 166.333V160.835Z" fill="url(#paint21_linear_31_7)"/>
<path d="M368.573 197.338C369.221 195.562 370.865 194.341 372.756 194.231C374.647 194.121 376.422 195.144 377.272 196.832C387.066 216.288 404.147 261.669 365.58 285.484L361.023 279.019C361.023 279.019 382.05 248.294 365.88 218.9C363.907 215.314 363.576 211.044 364.978 207.2L368.573 197.338Z" fill="url(#paint22_linear_31_7)"/>
<path d="M360.823 278.958C360.823 278.958 349.523 283.111 348.928 292.009C348.333 300.907 349.523 303.28 351.307 300.314C353.091 297.348 354.876 294.382 358.444 292.009C362.012 289.636 365.58 285.484 365.58 285.484C365.58 285.484 364.986 278.958 360.823 278.958Z" fill="url(#paint23_linear_31_7)"/>
<path d="M312.875 262.264C312.875 262.264 304.407 273.117 311.004 274.558C311.004 274.558 316.78 270.123 318.698 265.613C320.616 261.103 315.263 258.654 312.875 262.264Z" fill="url(#paint24_linear_31_7)"/>
<path d="M402.139 240.079C402.113 240.079 402.086 240.074 402.06 240.065C401.943 240.022 401.883 239.892 401.927 239.775C406.299 227.989 400.301 215.984 387.703 197.956C375.205 180.069 373.973 154.902 373.962 154.65C373.956 154.525 374.053 154.42 374.178 154.414C374.178 154.414 374.185 154.414 374.188 154.414C374.309 154.414 374.409 154.509 374.414 154.63C374.425 154.881 375.653 179.92 388.075 197.697C400.76 215.852 406.792 227.959 402.351 239.932C402.317 240.023 402.231 240.079 402.139 240.079Z" fill="#91B3FA"/>
<path d="M178.484 232.302C178.484 232.302 178.438 232.332 178.399 232.394L178.626 232.409C178.588 232.463 178.783 232.555 178.783 232.662V232.669L178.541 232.785C178.541 232.899 178.409 233.045 178.378 233.206L178.312 233.275C177.912 235.635 175.671 242.094 173.297 250.453C173.274 250.522 173.244 250.599 173.221 250.668C167.898 269.425 160.194 297.74 157.874 310.812C157.874 310.812 153.749 312.127 147.358 313.934H147.343C138.109 315.741 124.175 317.707 111.209 314.321C111.209 314.321 104.241 257.55 112.683 208.39C112.683 208.39 134.829 202.861 158.734 201.359C158.857 201.352 158.98 201.119 159.103 201.111C161.031 201.004 162.967 200.71 164.902 200.71H166.439C166.654 200.71 166.861 200.71 167.076 200.71H167.115C168.106 200.71 169.895 201.707 171.985 202.588C172.046 202.611 172.169 202.718 172.169 202.749C172.169 202.749 172.184 202.73 172.192 202.73C172.192 202.73 172.553 202.972 172.714 203.041C172.953 203.14 173.198 203.282 173.452 203.404C173.505 203.435 173.567 203.479 173.621 203.502C173.644 203.517 173.675 203.531 173.698 203.546C173.859 203.631 174.028 203.718 174.205 203.803C174.243 203.818 174.274 203.835 174.304 203.85C174.504 203.95 174.704 204.058 174.911 204.165C174.942 204.181 174.781 204.196 174.811 204.219C175.05 204.342 175.357 204.473 175.603 204.603C175.825 204.718 175.994 204.84 176.01 204.971L176.041 204.772C176.156 204.833 176.279 204.902 176.394 204.971C176.401 204.971 176.417 204.978 176.425 204.986C177.7 205.729 178.983 206.595 180.173 207.607C180.181 207.614 180.181 207.622 180.189 207.63C180.204 207.652 180.227 207.683 180.242 207.706C185.597 216.579 188.086 231.114 178.484 232.302Z" fill="url(#paint25_linear_31_7)"/>
<path d="M234.425 247.007C210.332 244.464 199.022 225.95 190.068 214.176C178.245 198.632 165.192 201.317 165.192 201.317L173.181 235.617C191.056 264.029 216.625 265.38 233.813 262.132C235.568 256.362 235.278 251.078 234.425 247.007Z" fill="#BDD0FB"/>
<path d="M270.613 241.66L261.848 243.793C251.165 247.002 242.141 247.822 234.425 247.007C235.278 251.078 235.568 256.363 233.813 262.132C244.754 260.065 252.3 256.135 252.3 256.135C272.421 250.292 270.613 241.66 270.613 241.66Z" fill="#BDD0FB"/>
<path d="M290.45 258.343C290.383 256.568 289.51 254.92 288.078 253.864L274.103 243.557C274.103 243.557 274.388 241.499 278.275 241.059C282.161 240.619 282.364 236.458 282.364 236.458C282.364 236.458 276.965 237.402 268.991 239.053C264.43 239.997 261.246 242.926 259.354 245.262L261.997 251.574C270.865 256.95 280.454 260.026 290.568 261.428L290.45 258.343Z" fill="url(#paint26_linear_31_7)"/>
<path d="M167.353 201.132C167.268 201.125 167.192 201.125 167.115 201.125C167.092 201.117 167.076 201.117 167.053 201.109L167.353 201.132Z" fill="url(#paint27_linear_31_7)"/>
<path d="M172.2 200.872L172.169 200.887V200.856C172.177 200.864 172.185 200.872 172.2 200.872Z" fill="url(#paint28_linear_31_7)"/>
<path d="M158.071 468.409C158.071 468.409 156.821 475.471 156.208 482.462C155.968 485.194 158.08 487.567 160.827 487.681C170.161 488.069 190.126 488.823 197.29 488.504C198.367 488.456 199.071 487.356 198.672 486.357C198.338 485.52 197.694 484.843 196.873 484.467L163.895 469.348L158.071 468.409Z" fill="url(#paint29_linear_31_7)"/>
<path d="M157.047 464.259L158.052 472.707C158.052 472.707 163.829 475.389 167.774 472.369L165.382 462.955L157.047 464.259Z" fill="url(#paint30_linear_31_7)"/>
<path d="M157.802 305.441C157.368 307.647 155.472 415.528 167.033 463.873C167.222 464.662 166.821 465.475 166.068 465.782C164.295 466.505 160.819 467.551 156.653 467.691C155.362 467.734 154.206 466.898 153.842 465.662C150.537 454.446 134.702 398.246 132.636 344.56C130.328 284.572 132.636 342.518 132.636 342.518L133.99 305.437L157.802 305.441Z" fill="url(#paint31_linear_31_7)"/>
<path d="M120.135 472.093C120.135 472.093 118.144 475.659 116.217 485.133C115.868 486.844 117.067 488.481 118.809 488.652C121.891 488.954 126.635 489.343 130.436 489.317C132.188 489.305 133.555 487.783 133.344 486.049C132.923 482.59 131.611 476.917 127.56 472.495L120.135 472.093Z" fill="url(#paint32_linear_31_7)"/>
<path d="M118.386 461.228L120.734 474.003C120.734 474.003 123.056 475.725 127.648 474.477L126.528 460.731L118.386 461.228Z" fill="url(#paint33_linear_31_7)"/>
<path d="M112.043 308.752C102.588 365.671 114.094 449.432 117.975 465.826C118.212 466.829 119.025 467.598 120.045 467.767C121.777 468.053 124.629 468.287 127.44 467.472C128.409 467.192 129.089 466.32 129.129 465.315C129.65 452.061 128.712 370.694 137.523 338.537C137.969 336.907 138.967 335.486 140.347 334.507L157.447 322.381L158.758 302.781L112.043 308.752Z" fill="url(#paint34_linear_31_7)"/>
<path d="M123.56 235.69L112.692 208.322C112.692 208.322 86.2248 226.26 81.8721 249.003C86.873 249.371 95.9732 250.668 104.88 255.154C106.838 244.415 123.56 235.69 123.56 235.69Z" fill="white"/>
<path d="M143.591 177.956L134.575 203.963C134.426 204.394 134.603 204.871 135.003 205.092C137.461 206.447 146.315 210.365 156.986 203.617C158.097 202.914 158.854 201.767 159.023 200.465L161.943 177.956L143.591 177.956Z" fill="url(#paint35_linear_31_7)"/>
<path d="M126.48 205.395L137.239 196.281L153.333 235.474L141.596 391.219L104.952 392.312C104.693 392.32 104.442 392.22 104.259 392.037C104.076 391.854 103.978 391.603 103.986 391.345L109.102 241.51C109.102 241.51 109.243 209.133 112.692 208.323C116.142 207.512 126.48 205.395 126.48 205.395Z" fill="white"/>
<path d="M178.58 232.409L178.783 232.662V232.669L178.541 232.784L178.378 233.206L178.271 233.275L175.161 264.199C175.161 264.207 175.161 264.207 175.161 264.214L162.404 393.237C162.373 393.497 162.301 393.727 162.101 393.888C161.902 394.041 161.666 394.11 161.413 394.072L141.584 391.222L147.348 313.773L147.357 313.658L153.388 233.459L158.858 201.255V201.24L159.626 196.282L164.934 200.956L165.002 200.964L166.523 201.048L167.149 201.079C168.133 201.339 172.165 202.856 172.165 202.856C172.165 202.879 173.573 203.485 174.249 203.806C174.287 203.822 174.296 203.837 174.327 203.852C174.526 203.952 174.715 204.059 174.922 204.167C174.953 204.182 174.856 204.197 174.886 204.22C175.301 204.45 175.764 204.703 175.764 204.971V204.986L178.107 232.302L178.355 232.394L178.58 232.409Z" fill="#BDD0FB"/>
<path d="M160.066 235.156V238.968L173.953 238.121V233.886L160.066 235.156Z" fill="url(#paint36_linear_31_7)"/>
<path d="M152.464 244.411C152.416 244.411 152.367 244.399 152.322 244.375L139.956 237.751C139.872 237.706 139.814 237.624 139.8 237.53L138.098 226.097L133.528 225.287C133.417 225.268 133.326 225.187 133.293 225.08L128.521 209.62C128.472 209.461 128.562 209.292 128.721 209.244C128.884 209.193 129.05 209.284 129.098 209.442L133.815 224.727L138.417 225.542C138.545 225.564 138.644 225.666 138.663 225.794L140.376 237.292L152.607 243.845C152.754 243.924 152.809 244.106 152.731 244.252C152.676 244.353 152.572 244.411 152.464 244.411Z" fill="#91B3FA"/>
<path d="M155.402 240.624C155.364 240.624 155.326 240.614 155.29 240.594C155.182 240.532 155.144 240.394 155.205 240.286L161.706 228.92L160.631 222.487C160.615 222.391 160.662 222.296 160.749 222.25L166.004 219.46L164.675 200.974C164.666 200.85 164.76 200.742 164.885 200.733C165.009 200.72 165.118 200.818 165.126 200.943L166.467 219.575C166.473 219.664 166.426 219.748 166.347 219.79L161.105 222.573L162.166 228.925C162.174 228.976 162.165 229.029 162.139 229.074L155.599 240.51C155.558 240.582 155.481 240.624 155.402 240.624Z" fill="white"/>
<path d="M146.723 260.641C146.723 260.641 117.007 277.393 106.98 263.089C104.898 260.119 104.401 257.167 104.913 254.353C96.006 249.867 86.906 248.57 81.9051 248.202C80.5928 255.058 81.2865 262.351 85.3256 269.721C102.889 301.767 150.655 267.95 150.655 267.95L146.723 260.641Z" fill="white"/>
<path d="M143.152 281.834L159.37 225.341C159.554 224.699 160.102 224.231 160.767 224.154C163.705 223.812 172.219 222.852 182.05 222.023C193.891 221.024 207.643 220.214 215.86 220.903C217.028 221.001 217.734 222.233 217.215 223.282C212.542 232.711 193.32 271.07 183.695 283.636C183.376 284.052 182.883 284.295 182.358 284.291L144.73 283.941C143.635 283.931 142.851 282.884 143.152 281.834Z" fill="url(#paint37_linear_31_7)"/>
<path d="M183.732 217.125L195.49 215.171C196.117 215.067 196.629 215.664 196.431 216.265L195.266 219.783C195.165 220.09 194.897 220.311 194.577 220.354L183.262 221.861C182.677 221.939 182.194 221.409 182.329 220.835L183.049 217.764C183.127 217.433 183.396 217.181 183.732 217.125Z" fill="#91B3FA"/>
<path d="M174.928 227.055L175.897 222.022C175.994 221.517 176.412 221.136 176.924 221.084L200.673 218.68C201.472 218.599 202.112 219.33 201.925 220.109L200.415 226.38C200.294 226.882 199.856 227.244 199.339 227.27L176.132 228.436C175.377 228.474 174.785 227.796 174.928 227.055Z" fill="#7D97F4"/>
<path d="M147.07 268.185C147.07 268.185 144.811 258.919 145.722 255.631C146.633 252.344 148.399 248.117 154.284 249.056C160.17 249.996 167.112 252.469 167.112 252.469C167.112 252.469 166.762 256.751 162.289 255.369L165.062 257.51C165.062 257.51 164.666 260.939 160.888 259.107L163.467 261.946C163.467 261.946 161.845 264.762 159.065 262.956C156.285 261.15 154.953 269.301 147.07 268.185Z" fill="url(#paint38_linear_31_7)"/>
<path d="M118.751 268.878C116.004 268.878 113.482 268.474 111.566 267.424C111.419 267.344 111.366 267.161 111.446 267.015C111.526 266.869 111.711 266.816 111.856 266.896C119.809 271.25 139.388 263.813 139.584 263.736C139.634 263.719 143.464 262.393 144.836 259.72C144.913 259.572 145.096 259.514 145.242 259.589C145.391 259.665 145.45 259.847 145.374 259.994C143.889 262.887 139.956 264.246 139.79 264.302C139.174 264.539 127.748 268.878 118.751 268.878Z" fill="#91B3FA"/>
<path d="M108.032 283.802C107.869 283.802 107.736 283.674 107.73 283.511C107.724 283.345 107.855 283.206 108.021 283.2C130.602 282.424 143.483 272.101 143.61 271.997C143.74 271.892 143.929 271.911 144.036 272.039C144.141 272.168 144.122 272.358 143.994 272.463C143.864 272.568 130.839 283.019 108.042 283.802C108.039 283.802 108.035 283.802 108.032 283.802Z" fill="#91B3FA"/>
<path d="M167.396 153.303C167.396 153.303 171.746 169.076 171.063 176.932C170.38 184.788 171.338 190.085 162.079 190.365C152.819 190.645 145.853 185.069 142.843 176.718C142.843 176.718 138.099 163.833 140.252 159.141C142.403 154.449 167.396 153.303 167.396 153.303Z" fill="url(#paint39_linear_31_7)"/>
<path d="M130.496 154.18C132.468 152.955 133.751 153.377 134.502 153.995C134.714 154.169 134.974 154.174 135.183 154.072C135.204 153.839 136.7 137.715 158.735 140.552C161.024 140.846 163.267 139.73 164.407 137.728C167.013 133.151 171.955 126.423 175.687 132.997C180.996 142.349 182.571 154.62 167.534 157.164C166.645 157.315 165.747 157.434 164.845 157.531C158.638 159.058 151.567 159.538 148.947 160.197C144.569 161.298 147.914 171.457 147.914 171.457L146.772 171.294L144.337 170.947C143.984 170.896 143.64 171.295 143.612 171.65L143.046 178.591C143.022 178.89 142.785 179.16 142.485 179.193C141.373 179.313 138.486 179.205 134.047 175.956C129.708 172.78 131.789 171.168 133.119 170.552C133.497 170.377 133.57 169.885 133.288 169.579C127.365 163.144 127.067 156.31 130.496 154.18Z" fill="url(#paint40_linear_31_7)"/>
<path d="M146.808 173.041C146.808 173.041 145.696 163.203 141.051 165.254C136.406 167.305 141.739 176.197 145.116 177.042L146.808 173.041Z" fill="url(#paint41_linear_31_7)"/>
<path d="M171.438 154.188C171.362 154.177 171.292 154.139 171.24 154.075C171.135 153.943 171.158 153.751 171.291 153.645C174.458 151.147 176.198 148.257 176.461 145.058C176.92 139.494 172.72 134.812 172.678 134.766C172.564 134.64 172.573 134.447 172.698 134.334C172.824 134.22 173.018 134.229 173.131 134.354C173.312 134.552 177.551 139.271 177.073 145.103C176.796 148.48 174.978 151.515 171.671 154.125C171.603 154.18 171.518 154.199 171.438 154.188Z" fill="white"/>
<path d="M419.39 292.964L392.372 293.297L401.828 284.419C404.178 282.212 407.766 281.854 410.479 283.61C412.067 284.637 413.79 286.033 415.283 287.88C415.283 287.88 432.137 281.736 440.307 267.99C442.852 271.76 445.828 276.892 448.406 283.277C441.081 287.566 431.587 290.939 419.39 292.964Z" fill="url(#paint42_linear_31_7)"/>
<path d="M384.254 485.16C391.447 485.78 403.931 486.787 413.773 487.219C419.689 487.479 423.095 486.901 425.057 486.118C425.053 486.338 425.047 486.547 425.038 486.74C424.992 487.773 424.15 488.6 423.104 488.658C404.508 489.694 389.718 489.017 384.453 488.697C383.364 488.631 382.715 487.451 383.272 486.525C383.551 486.062 383.888 485.608 384.254 485.16Z" fill="url(#paint43_linear_31_7)"/>
<path d="M413.773 487.219C403.931 486.787 391.447 485.779 384.254 485.159C391.326 476.505 413.773 470.671 413.773 470.671H420.112C424.473 476.941 425.104 482.91 425.056 486.118C423.095 486.901 419.689 487.479 413.773 487.219Z" fill="url(#paint44_linear_31_7)"/>
<path d="M421.18 460.348L420.587 472.058C420.523 473.326 419.571 474.392 418.298 474.573C417.031 474.754 415.335 474.777 413.536 474.18C412.429 473.812 411.607 472.882 411.403 471.748L409.353 460.348L421.18 460.348Z" fill="url(#paint45_linear_31_7)"/>
<path d="M494.76 495.226C497.88 494.721 499.291 492.839 499.883 490.827C499.887 490.845 499.891 490.863 499.894 490.881C500.353 493.003 499.289 495.203 497.163 496.249C494.592 497.513 491.781 497.728 489.598 497.624C487.257 497.512 485.108 496.387 483.927 494.586L483.909 494.559C486.259 495.909 489.558 496.068 494.76 495.226Z" fill="url(#paint46_linear_31_7)"/>
<path d="M480.053 463.956H485.281C493.245 463.767 498.246 483.273 499.883 490.827C499.291 492.839 497.88 494.721 494.76 495.226C489.558 496.068 486.259 495.909 483.909 494.559C479.607 487.984 477.474 478.355 476.449 472.735C475.283 466.343 480.053 463.956 480.053 463.956Z" fill="url(#paint47_linear_31_7)"/>
<path d="M484.61 453.086L487.513 464.604C487.869 466.016 487.191 467.477 485.882 468.147C484.258 468.978 481.972 469.852 479.87 469.599C478.882 469.48 478.061 468.786 477.734 467.857L473.472 455.74L484.61 453.086Z" fill="url(#paint48_linear_31_7)"/>
<path d="M382.483 301.394C382.483 301.394 408.427 463.156 407.999 464.045C407.999 464.045 415.165 467.293 422.977 464.459C422.977 464.459 420.631 377.985 415.133 344.829C415.133 344.829 459.411 422.119 473.472 460.631C473.472 460.631 480.805 459.759 486.876 455.774C486.876 455.774 439.201 316.655 426.482 298.125L382.483 301.394Z" fill="url(#paint49_linear_31_7)"/>
<path d="M414.098 344.474C414.325 344.474 414.555 344.413 414.762 344.283C415.349 343.917 415.527 343.145 415.16 342.56L405.464 327.113C405.282 326.821 404.987 326.618 404.649 326.55L397.514 325.117C396.835 324.975 396.174 325.42 396.037 326.097C395.901 326.773 396.34 327.433 397.019 327.57L403.625 328.896L413.034 343.887C413.272 344.266 413.68 344.474 414.098 344.474Z" fill="url(#paint50_linear_31_7)"/>
<path d="M379.831 196.864C384.195 187.735 421.87 186.772 449.471 195.868C455.279 197.782 459.984 202.065 462.409 207.615C469.875 224.706 481.963 263.628 448.406 283.277C445.828 276.893 442.852 271.761 440.307 267.99C445.712 258.898 447.312 246.479 437.722 230.308C430.73 249.142 427.449 276.623 426.764 288.784C426.538 292.788 427.242 296.785 428.817 300.482L428.989 300.885C429.326 301.676 428.862 302.585 428.014 302.775C409.123 307.008 389.474 305.858 383.604 305.374C382.556 305.288 381.686 304.54 381.445 303.53C372.259 264.92 373.26 210.609 379.831 196.864Z" fill="url(#paint51_linear_31_7)"/>
<path d="M421.071 165.953C421.071 165.953 422.982 186.108 424.664 192.07C424.92 192.975 424.526 193.928 423.702 194.398C420.846 196.026 413.996 198.681 404.627 194.1C403.109 193.358 402.197 191.78 402.268 190.11L403.093 170.633L421.071 165.953Z" fill="url(#paint52_linear_31_7)"/>
<path d="M402.681 140.167C402.681 140.167 396.568 154.173 396.158 161.524C395.747 168.876 394.159 173.646 402.681 175.126C411.202 176.606 418.381 172.372 422.27 165.049C422.27 165.049 428.364 153.766 426.997 149.145C425.63 144.524 402.681 140.167 402.681 140.167Z" fill="url(#paint53_linear_31_7)"/>
<path d="M419.358 159.785L418.873 159.571C418.256 159.3 417.992 158.567 418.302 157.969C419.503 155.653 421.846 150.346 418.82 149.107C414.92 147.512 399.471 144.37 396.137 138.901C392.934 133.646 395.772 126.863 400.038 124.933C400.324 124.804 400.66 124.907 400.807 125.183L401.162 125.854C401.405 126.313 402.086 126.244 402.23 125.745C402.369 125.266 403.008 125.173 403.273 125.596C404.298 127.231 407.064 129.884 414.461 131.245C424.974 133.181 431.924 137.424 432.097 144.671C432.108 145.131 432.599 145.387 432.994 145.147C433.77 144.675 435.012 144.454 436.672 145.846C439.559 148.268 438.378 154.55 432.049 159.717C431.748 159.962 431.75 160.43 432.076 160.642C433.223 161.387 434.934 163.159 430.502 165.523C425.917 167.967 422.494 167.766 421.176 167.549C420.848 167.495 420.637 167.179 420.708 166.855L422.115 160.486C422.195 160.126 421.92 159.784 421.55 159.784L419.358 159.785Z" fill="url(#paint54_linear_31_7)"/>
<path d="M419.094 161.129C419.094 161.129 421.426 152.182 425.447 154.69C429.469 157.199 423.361 164.715 420.127 165.05L419.094 161.129Z" fill="url(#paint55_linear_31_7)"/>
<path d="M430.706 282.111C430.706 282.111 428.408 278.289 423.044 278.289C417.68 278.289 411.55 288.225 411.55 288.225C411.55 288.225 419.978 292.046 423.044 295.104C426.109 298.161 430.706 288.225 430.706 282.111Z" fill="url(#paint56_linear_31_7)"/>
<path d="M231.668 472.514L252.381 473.234C253.783 473.283 254.928 472.126 254.861 470.728L253.888 450.348C253.827 449.072 252.772 448.068 251.491 448.068H231.752C230.426 448.068 229.352 449.14 229.352 450.462V470.122C229.352 471.412 230.376 472.469 231.668 472.514Z" fill="url(#paint57_linear_31_7)"/>
<path d="M296.127 432.483C296.127 432.483 275.435 453.965 262.344 432.483L258.543 438.38C258.543 438.38 273.746 469.55 306.684 442.171L296.127 432.483Z" fill="url(#paint58_linear_31_7)"/>
<path d="M305.937 418.599C308.458 416.87 311.247 415.566 314.203 414.763C315.313 414.462 321.308 416.2 325.014 416.115C330.101 415.998 335.279 413.689 339.473 414.731C343.638 415.767 347.047 417.119 349.016 418.515C354.908 422.695 358.367 430.49 360.475 438.21C356.483 442.297 351.46 444.114 351.46 444.114L350.532 481.641L327.798 488.505L302.893 480.278L303.803 443.606C303.803 443.606 293.34 434.688 292.749 433.326C292.157 431.963 298.823 423.478 305.937 418.599Z" fill="url(#paint59_linear_31_7)"/>
<path d="M372.781 487.177C367.199 485.899 354.295 486.586 354.295 486.586L353.77 488.004L352.901 495.05C352.901 495.05 365.189 497.26 371.246 497.254C371.864 497.254 372.43 497.161 372.946 497.001C373.131 496.836 373.311 496.664 373.482 496.478C376.052 493.679 375.31 489.566 372.781 487.177Z" fill="url(#paint60_linear_31_7)"/>
<path d="M373.335 487.317C373.16 487.268 372.975 487.221 372.782 487.177C375.31 489.566 376.052 493.679 373.482 496.478C373.312 496.664 373.131 496.835 372.946 497.001C377.491 495.59 378.028 488.634 373.335 487.317Z" fill="url(#paint61_linear_31_7)"/>
<path d="M350.588 486.189L352.773 486.282C353.947 486.332 355.053 486.902 355.842 487.865C356.631 488.828 357.037 490.101 356.968 491.398C356.913 492.433 356.488 493.4 355.786 494.087C355.084 494.773 354.164 495.122 353.23 495.055L349.886 494.818L350.588 486.189Z" fill="url(#paint62_linear_31_7)"/>
<path d="M277.117 486.499C282.729 485.392 295.611 486.474 295.611 486.474L296.1 487.907L296.793 494.978C296.793 494.978 284.454 496.81 278.399 496.619C277.781 496.6 277.218 496.49 276.706 496.314C276.526 496.143 276.35 495.966 276.184 495.775C273.685 492.898 274.53 488.81 277.117 486.499Z" fill="url(#paint63_linear_31_7)"/>
<path d="M276.56 486.621C276.736 486.578 276.923 486.537 277.117 486.499C274.53 488.81 273.685 492.898 276.184 495.775C276.35 495.966 276.526 496.143 276.706 496.314C272.2 494.765 271.836 487.794 276.56 486.621Z" fill="url(#paint64_linear_31_7)"/>
<path d="M299.327 486.19L297.141 486.217C295.966 486.23 294.846 486.767 294.033 487.705C293.22 488.643 292.782 489.904 292.819 491.203C292.848 492.238 293.249 493.218 293.933 493.926C294.618 494.634 295.529 495.01 296.465 494.972L299.812 494.837L299.327 486.19Z" fill="url(#paint65_linear_31_7)"/>
<path d="M374.343 465.085C371.811 459.273 365.619 458.329 360.348 461.047C360.257 461.167 326.877 478.231 297.441 485.71C298.284 488.405 298.717 491.272 298.811 494.091C298.828 494.718 298.818 495.338 298.781 495.949C321.355 494.792 345.854 487.283 366.906 480.684C373.434 478.584 377.149 471.527 374.343 465.085Z" fill="url(#paint66_linear_31_7)"/>
<path d="M350.748 494.532C350.66 491.284 351.293 488.259 352.648 485.46C352.686 485.331 352.733 485.208 352.774 485.082C351.093 484.562 348.921 483.859 346.068 482.893C325.165 475.758 309.219 468.553 294 460.26C288.088 457.038 281.365 459.197 279.472 466.175C277.783 472.405 281.493 477.723 287.124 479.592C303.971 485.184 295.199 483.631 300.702 485.397C315.478 489.955 333.865 494.106 350.783 495.24C350.77 495.004 350.756 494.768 350.748 494.532Z" fill="url(#paint67_linear_31_7)"/>
<path d="M314.203 414.763C314.203 414.763 316.451 424.48 327.365 424.279C338.482 424.077 339.473 414.731 339.473 414.731L332.211 413.181L331.604 405.111L320.681 405.918L320.479 413.585L314.203 414.763Z" fill="url(#paint68_linear_31_7)"/>
<path fill-rule="evenodd" clip-rule="evenodd" d="M306.59 394.074C306.59 394.074 302.126 389.497 305.481 385.859C305.481 385.859 302.177 381.697 305.447 377.464C305.447 377.464 308.326 361.257 324.573 368.682C324.573 368.682 335.524 362.738 342.815 376.132C342.815 376.132 347.26 377.418 346.772 383.116C346.772 383.116 352.061 402.718 332.633 399.92L306.59 394.074Z" fill="url(#paint69_linear_31_7)"/>
<path fill-rule="evenodd" clip-rule="evenodd" d="M309.668 380.532C309.668 380.532 296.693 404.575 312.726 410.754C328.76 416.934 335.162 400.026 335.162 400.026C335.162 400.026 341.112 392.087 338.122 386.929C335.131 381.772 313.182 377.06 309.668 380.532Z" fill="url(#paint70_linear_31_7)"/>
<path fill-rule="evenodd" clip-rule="evenodd" d="M306.253 392.09C306.253 392.09 306.912 389.077 304.235 388.893C301.558 388.708 305.02 396.05 305.02 396.05L306.253 392.09Z" fill="url(#paint71_linear_31_7)"/>
<path fill-rule="evenodd" clip-rule="evenodd" d="M336.24 396.05C336.24 396.05 319.987 393.086 320.156 383.712C320.156 383.712 317.483 384.323 316.25 381.247C316.25 381.247 309.453 389.096 306.822 384.539C306.822 384.539 306.654 372.454 316.513 375.134C326.372 377.814 335.428 380.661 338.284 383.094C341.141 385.526 344.066 391.916 336.24 396.05Z" fill="url(#paint72_linear_31_7)"/>
<path fill-rule="evenodd" clip-rule="evenodd" d="M333.384 402.427L335.195 394.464C335.195 394.464 340.248 391.329 340.066 395.559C339.885 399.79 335.355 402.685 333.384 402.427Z" fill="url(#paint73_linear_31_7)"/>
<path d="M359.955 438.334C359.955 438.334 368.337 472.078 342.578 481.766C337.461 481.087 334.554 478.817 334.554 478.817C334.554 478.817 351.601 467.104 350.463 444.053C353.423 441.624 359.955 438.334 359.955 438.334Z" fill="url(#paint74_linear_31_7)"/>
<path d="M341.311 483.872C341.311 483.872 333.288 482.187 329.909 481.766C326.531 481.344 321.987 480.543 324.048 475.679C326.109 470.814 329.065 471.656 332.865 473.763C334.613 474.731 343.845 480.923 341.311 483.872Z" fill="url(#paint75_linear_31_7)"/>
<path d="M241.238 457.832L260.193 458.491C261.476 458.536 262.524 457.477 262.463 456.198L261.572 437.547C261.516 436.379 260.551 435.461 259.379 435.461H241.314C240.101 435.461 239.118 436.442 239.118 437.651V455.643C239.118 456.823 240.055 457.791 241.238 457.832Z" fill="#91B3FA"/>
<path d="M246.318 438.323C246.671 436.619 247.827 430.647 250.906 429.461C257.276 427.007 262.552 432.87 262.552 432.87L263.61 437.641C263.449 437.368 263.171 437.137 262.813 436.942C261.996 440.075 259.418 443.11 258.121 442.592C256.009 441.75 256.432 441.75 258.543 438.38C258.549 438.371 258.555 438.362 258.56 438.353C259.16 437.38 258.381 436.124 257.239 436.197C254.482 436.375 251.784 437.139 251.259 438.323C250.2 440.709 245.965 440.027 246.318 438.323Z" fill="url(#paint76_linear_31_7)"/>
<path d="M246.87 496.523L267.583 497.243C268.985 497.292 270.13 496.135 270.063 494.737L269.09 474.357C269.029 473.081 267.974 472.078 266.693 472.078H246.954C245.629 472.078 244.554 473.149 244.554 474.471V494.131C244.554 495.421 245.578 496.478 246.87 496.523Z" fill="#91B3FA"/>
<path d="M220.391 496.631L241.109 497.136C242.512 497.17 243.645 496.002 243.563 494.605L242.378 474.236C242.304 472.96 241.239 471.968 239.958 471.981L220.22 472.186C218.895 472.199 217.832 473.282 217.845 474.604L218.05 494.263C218.063 495.552 219.098 496.599 220.391 496.631Z" fill="#7D97F4"/>
<defs>
<linearGradient id="paint0_linear_31_7" x1="537.125" y1="506.742" x2="166.536" y2="181.653" gradientUnits="userSpaceOnUse">
<stop stop-color="#DAE3FE"/>
<stop offset="1" stop-color="#E9EFFD"/>
</linearGradient>
<linearGradient id="paint1_linear_31_7" x1="590.571" y1="99.3286" x2="440.342" y2="159.21" gradientUnits="userSpaceOnUse">
<stop stop-color="#E1473D"/>
<stop offset="1" stop-color="#E9605A"/>
</linearGradient>
<linearGradient id="paint2_linear_31_7" x1="21.2607" y1="259.01" x2="316.112" y2="259.01" gradientUnits="userSpaceOnUse">
<stop stop-color="#FF928E"/>
<stop offset="1" stop-color="#FE7062"/>
</linearGradient>
<linearGradient id="paint3_linear_31_7" x1="55.3911" y1="255.822" x2="159.213" y2="123.68" gradientUnits="userSpaceOnUse">
<stop stop-color="#FF928E"/>
<stop offset="1" stop-color="#FE7062"/>
</linearGradient>
<linearGradient id="paint4_linear_31_7" x1="138.37" y1="160.169" x2="110.701" y2="207.808" gradientUnits="userSpaceOnUse">
<stop stop-color="#FF928E"/>
<stop offset="1" stop-color="#FE7062"/>
</linearGradient>
<linearGradient id="paint5_linear_31_7" x1="155.49" y1="170.112" x2="127.821" y2="217.751" gradientUnits="userSpaceOnUse">
<stop stop-color="#FF928E"/>
<stop offset="1" stop-color="#FE7062"/>
</linearGradient>
<linearGradient id="paint6_linear_31_7" x1="189.731" y1="190" x2="162.062" y2="237.639" gradientUnits="userSpaceOnUse">
<stop stop-color="#FF928E"/>
<stop offset="1" stop-color="#FE7062"/>
</linearGradient>
<linearGradient id="paint7_linear_31_7" x1="172.16" y1="179.795" x2="144.491" y2="227.434" gradientUnits="userSpaceOnUse">
<stop stop-color="#FF928E"/>
<stop offset="1" stop-color="#FE7062"/>
</linearGradient>
<linearGradient id="paint8_linear_31_7" x1="203.965" y1="-32.726" x2="85.8581" y2="123.035" gradientUnits="userSpaceOnUse">
<stop stop-color="#09005D"/>
<stop offset="1" stop-color="#1A0F91"/>
</linearGradient>
<linearGradient id="paint9_linear_31_7" x1="216.962" y1="-22.871" x2="98.8552" y2="132.89" gradientUnits="userSpaceOnUse">
<stop stop-color="#09005D"/>
<stop offset="1" stop-color="#1A0F91"/>
</linearGradient>
<linearGradient id="paint10_linear_31_7" x1="340.02" y1="-118.064" x2="251.498" y2="-27.5064" gradientUnits="userSpaceOnUse">
<stop stop-color="#FF928E"/>
<stop offset="1" stop-color="#FE7062"/>
</linearGradient>
<linearGradient id="paint11_linear_31_7" x1="147.511" y1="459.688" x2="147.764" y2="459.688" gradientUnits="userSpaceOnUse">
<stop stop-color="#53D8FF"/>
<stop offset="1" stop-color="#3840F7"/>
</linearGradient>
<linearGradient id="paint12_linear_31_7" x1="329.886" y1="475.357" x2="350.016" y2="475.357" gradientUnits="userSpaceOnUse">
<stop stop-color="#CB236D"/>
<stop offset="1" stop-color="#4C246D"/>
</linearGradient>
<linearGradient id="paint13_linear_31_7" x1="323.014" y1="131.291" x2="356.182" y2="189.173" gradientUnits="userSpaceOnUse">
<stop stop-color="#09005D"/>
<stop offset="1" stop-color="#1A0F91"/>
</linearGradient>
<linearGradient id="paint14_linear_31_7" x1="331.401" y1="546.929" x2="342.214" y2="413.626" gradientUnits="userSpaceOnUse">
<stop stop-color="#FEBBBA"/>
<stop offset="1" stop-color="#FF928E"/>
</linearGradient>
<linearGradient id="paint15_linear_31_7" x1="355.287" y1="474.713" x2="367.251" y2="474.713" gradientUnits="userSpaceOnUse">
<stop stop-color="#CB236D"/>
<stop offset="1" stop-color="#4C246D"/>
</linearGradient>
<linearGradient id="paint16_linear_31_7" x1="362.132" y1="513.28" x2="362.132" y2="410.496" gradientUnits="userSpaceOnUse">
<stop stop-color="#FEBBBA"/>
<stop offset="1" stop-color="#FF928E"/>
</linearGradient>
<linearGradient id="paint17_linear_31_7" x1="615.825" y1="104.692" x2="420.548" y2="248.501" gradientUnits="userSpaceOnUse">
<stop stop-color="#4F52FF"/>
<stop offset="1" stop-color="#4042E2"/>
</linearGradient>
<linearGradient id="paint18_linear_31_7" x1="335.559" y1="218.304" x2="352.938" y2="168.027" gradientUnits="userSpaceOnUse">
<stop stop-color="#FEBBBA"/>
<stop offset="1" stop-color="#FF928E"/>
</linearGradient>
<linearGradient id="paint19_linear_31_7" x1="329.089" y1="176.677" x2="364.209" y2="131.168" gradientUnits="userSpaceOnUse">
<stop stop-color="#FEBBBA"/>
<stop offset="1" stop-color="#FF928E"/>
</linearGradient>
<linearGradient id="paint20_linear_31_7" x1="340.584" y1="121.223" x2="373.752" y2="179.106" gradientUnits="userSpaceOnUse">
<stop stop-color="#09005D"/>
<stop offset="1" stop-color="#1A0F91"/>
</linearGradient>
<linearGradient id="paint21_linear_31_7" x1="339.455" y1="185.08" x2="374.661" y2="139.46" gradientUnits="userSpaceOnUse">
<stop stop-color="#FEBBBA"/>
<stop offset="1" stop-color="#FF928E"/>
</linearGradient>
<linearGradient id="paint22_linear_31_7" x1="354.829" y1="312.223" x2="383.982" y2="203.006" gradientUnits="userSpaceOnUse">
<stop stop-color="#FEBBBA"/>
<stop offset="1" stop-color="#FF928E"/>
</linearGradient>
<linearGradient id="paint23_linear_31_7" x1="350.623" y1="313.069" x2="381.714" y2="196.59" gradientUnits="userSpaceOnUse">
<stop stop-color="#FEBBBA"/>
<stop offset="1" stop-color="#FF928E"/>
</linearGradient>
<linearGradient id="paint24_linear_31_7" x1="315.132" y1="260.167" x2="312.323" y2="275.907" gradientUnits="userSpaceOnUse">
<stop stop-color="#FEBBBA"/>
<stop offset="1" stop-color="#FF928E"/>
</linearGradient>
<linearGradient id="paint25_linear_31_7" x1="108.507" y1="258.439" x2="184.975" y2="258.439" gradientUnits="userSpaceOnUse">
<stop stop-color="#09005D"/>
<stop offset="1" stop-color="#1A0F91"/>
</linearGradient>
<linearGradient id="paint26_linear_31_7" x1="316.239" y1="221.485" x2="174.594" y2="330.117" gradientUnits="userSpaceOnUse">
<stop stop-color="#A22B25"/>
<stop offset="1" stop-color="#C0423C"/>
</linearGradient>
<linearGradient id="paint27_linear_31_7" x1="167.053" y1="201.121" x2="167.353" y2="201.121" gradientUnits="userSpaceOnUse">
<stop stop-color="#09005D"/>
<stop offset="1" stop-color="#1A0F91"/>
</linearGradient>
<linearGradient id="paint28_linear_31_7" x1="172.15" y1="200.918" x2="172.114" y2="200.974" gradientUnits="userSpaceOnUse">
<stop stop-color="#53EAC9"/>
<stop offset="0.9964" stop-color="#45AED8"/>
</linearGradient>
<linearGradient id="paint29_linear_31_7" x1="196.246" y1="458.648" x2="75.8106" y2="589.98" gradientUnits="userSpaceOnUse">
<stop stop-color="#09005D"/>
<stop offset="1" stop-color="#1A0F91"/>
</linearGradient>
<linearGradient id="paint30_linear_31_7" x1="157.047" y1="468.38" x2="167.774" y2="468.38" gradientUnits="userSpaceOnUse">
<stop stop-color="#A22B25"/>
<stop offset="1" stop-color="#C0423C"/>
</linearGradient>
<linearGradient id="paint31_linear_31_7" x1="205.755" y1="310.47" x2="103.331" y2="449.644" gradientUnits="userSpaceOnUse">
<stop stop-color="#09005D"/>
<stop offset="1" stop-color="#1A0F91"/>
</linearGradient>
<linearGradient id="paint32_linear_31_7" x1="169.154" y1="433.804" x2="48.7183" y2="565.136" gradientUnits="userSpaceOnUse">
<stop stop-color="#09005D"/>
<stop offset="1" stop-color="#1A0F91"/>
</linearGradient>
<linearGradient id="paint33_linear_31_7" x1="118.386" y1="467.831" x2="127.648" y2="467.831" gradientUnits="userSpaceOnUse">
<stop stop-color="#A22B25"/>
<stop offset="1" stop-color="#C0423C"/>
</linearGradient>
<linearGradient id="paint34_linear_31_7" x1="187.44" y1="296.991" x2="85.0163" y2="436.166" gradientUnits="userSpaceOnUse">
<stop stop-color="#09005D"/>
<stop offset="1" stop-color="#1A0F91"/>
</linearGradient>
<linearGradient id="paint35_linear_31_7" x1="163.304" y1="161.151" x2="131.77" y2="235.813" gradientUnits="userSpaceOnUse">
<stop stop-color="#A22B25"/>
<stop offset="1" stop-color="#C0423C"/>
</linearGradient>
<linearGradient id="paint36_linear_31_7" x1="158.118" y1="243.022" x2="207.276" y2="207.555" gradientUnits="userSpaceOnUse">
<stop stop-color="#9CFFFB"/>
<stop offset="1" stop-color="#9BFFFA"/>
</linearGradient>
<linearGradient id="paint37_linear_31_7" x1="171.637" y1="216.677" x2="209.59" y2="375.214" gradientUnits="userSpaceOnUse">
<stop stop-color="#4F52FF"/>
<stop offset="1" stop-color="#4042E2"/>
</linearGradient>
<linearGradient id="paint38_linear_31_7" x1="145.506" y1="258.607" x2="167.112" y2="258.607" gradientUnits="userSpaceOnUse">
<stop stop-color="#A22B25"/>
<stop offset="1" stop-color="#C0423C"/>
</linearGradient>
<linearGradient id="paint39_linear_31_7" x1="166.879" y1="166.567" x2="125.826" y2="189.64" gradientUnits="userSpaceOnUse">
<stop stop-color="#A22B25"/>
<stop offset="1" stop-color="#C0423C"/>
</linearGradient>
<linearGradient id="paint40_linear_31_7" x1="179.844" y1="128.121" x2="99.9843" y2="205.483" gradientUnits="userSpaceOnUse">
<stop stop-color="#09005D"/>
<stop offset="1" stop-color="#1A0F91"/>
</linearGradient>
<linearGradient id="paint41_linear_31_7" x1="163.144" y1="159.921" x2="122.091" y2="182.994" gradientUnits="userSpaceOnUse">
<stop stop-color="#A22B25"/>
<stop offset="1" stop-color="#C0423C"/>
</linearGradient>
<linearGradient id="paint42_linear_31_7" x1="385.246" y1="234.121" x2="409.619" y2="270.772" gradientUnits="userSpaceOnUse">
<stop stop-color="#FEBBBA"/>
<stop offset="1" stop-color="#FF928E"/>
</linearGradient>
<linearGradient id="paint43_linear_31_7" x1="425.057" y1="487.185" x2="383.069" y2="487.185" gradientUnits="userSpaceOnUse">
<stop stop-color="#4F52FF"/>
<stop offset="1" stop-color="#4042E2"/>
</linearGradient>
<linearGradient id="paint44_linear_31_7" x1="383.208" y1="417.117" x2="392.723" y2="446.74" gradientUnits="userSpaceOnUse">
<stop stop-color="#09005D"/>
<stop offset="1" stop-color="#1A0F91"/>
</linearGradient>
<linearGradient id="paint45_linear_31_7" x1="421.18" y1="467.517" x2="409.353" y2="467.517" gradientUnits="userSpaceOnUse">
<stop stop-color="#FEBBBA"/>
<stop offset="1" stop-color="#FF928E"/>
</linearGradient>
<linearGradient id="paint46_linear_31_7" x1="500" y1="494.237" x2="483.909" y2="494.237" gradientUnits="userSpaceOnUse">
<stop stop-color="#4F52FF"/>
<stop offset="1" stop-color="#4042E2"/>
</linearGradient>
<linearGradient id="paint47_linear_31_7" x1="459.248" y1="392.692" x2="468.763" y2="422.315" gradientUnits="userSpaceOnUse">
<stop stop-color="#09005D"/>
<stop offset="1" stop-color="#1A0F91"/>
</linearGradient>
<linearGradient id="paint48_linear_31_7" x1="487.607" y1="461.365" x2="473.472" y2="461.365" gradientUnits="userSpaceOnUse">
<stop stop-color="#FEBBBA"/>
<stop offset="1" stop-color="#FF928E"/>
</linearGradient>
<linearGradient id="paint49_linear_31_7" x1="373.277" y1="309.22" x2="493.51" y2="506.673" gradientUnits="userSpaceOnUse">
<stop stop-color="#09005D"/>
<stop offset="1" stop-color="#1A0F91"/>
</linearGradient>
<linearGradient id="paint50_linear_31_7" x1="510.5" y1="206.704" x2="438.27" y2="295.41" gradientUnits="userSpaceOnUse">
<stop stop-color="#020039"/>
<stop offset="1" stop-color="#090056"/>
</linearGradient>
<linearGradient id="paint51_linear_31_7" x1="616.012" y1="125.666" x2="524.662" y2="179.164" gradientUnits="userSpaceOnUse">
<stop stop-color="#FF928E"/>
<stop offset="1" stop-color="#FE7062"/>
</linearGradient>
<linearGradient id="paint52_linear_31_7" x1="417.971" y1="211.338" x2="411.877" y2="179.26" gradientUnits="userSpaceOnUse">
<stop stop-color="#FEBBBA"/>
<stop offset="1" stop-color="#FF928E"/>
</linearGradient>
<linearGradient id="paint53_linear_31_7" x1="401.4" y1="152.495" x2="436.278" y2="179.25" gradientUnits="userSpaceOnUse">
<stop stop-color="#FEBBBA"/>
<stop offset="1" stop-color="#FF928E"/>
</linearGradient>
<linearGradient id="paint54_linear_31_7" x1="425.998" y1="131.379" x2="393.557" y2="173.254" gradientUnits="userSpaceOnUse">
<stop stop-color="#09005D"/>
<stop offset="1" stop-color="#1A0F91"/>
</linearGradient>
<linearGradient id="paint55_linear_31_7" x1="405.734" y1="146.845" x2="440.612" y2="173.6" gradientUnits="userSpaceOnUse">
<stop stop-color="#FEBBBA"/>
<stop offset="1" stop-color="#FF928E"/>
</linearGradient>
<linearGradient id="paint56_linear_31_7" x1="414.393" y1="275.089" x2="430.458" y2="299.248" gradientUnits="userSpaceOnUse">
<stop stop-color="#FEBBBA"/>
<stop offset="1" stop-color="#FF928E"/>
</linearGradient>
<linearGradient id="paint57_linear_31_7" x1="250.865" y1="441.126" x2="233.874" y2="479.202" gradientUnits="userSpaceOnUse">
<stop stop-color="#4F52FF"/>
<stop offset="1" stop-color="#4042E2"/>
</linearGradient>
<linearGradient id="paint58_linear_31_7" x1="300.045" y1="445.608" x2="243.302" y2="433.505" gradientUnits="userSpaceOnUse">
<stop stop-color="#FEBBBA"/>
<stop offset="1" stop-color="#FF928E"/>
</linearGradient>
<linearGradient id="paint59_linear_31_7" x1="525.077" y1="136.125" x2="447.464" y2="259.174" gradientUnits="userSpaceOnUse">
<stop stop-color="#4F52FF"/>
<stop offset="1" stop-color="#4042E2"/>
</linearGradient>
<linearGradient id="paint60_linear_31_7" x1="364.597" y1="464.164" x2="365.666" y2="411.775" gradientUnits="userSpaceOnUse">
<stop stop-color="#09005D"/>
<stop offset="1" stop-color="#1A0F91"/>
</linearGradient>
<linearGradient id="paint61_linear_31_7" x1="378.864" y1="492.207" x2="358.582" y2="491.806" gradientUnits="userSpaceOnUse">
<stop stop-color="#4F52FF"/>
<stop offset="1" stop-color="#4042E2"/>
</linearGradient>
<linearGradient id="paint62_linear_31_7" x1="368.175" y1="450.173" x2="343.898" y2="516.097" gradientUnits="userSpaceOnUse">
<stop stop-color="#FEBBBA"/>
<stop offset="1" stop-color="#FF928E"/>
</linearGradient>
<linearGradient id="paint63_linear_31_7" x1="286.099" y1="443.98" x2="286.479" y2="391.582" gradientUnits="userSpaceOnUse">
<stop stop-color="#09005D"/>
<stop offset="1" stop-color="#1A0F91"/>
</linearGradient>
<linearGradient id="paint64_linear_31_7" x1="270.918" y1="491.358" x2="291.137" y2="491.521" gradientUnits="userSpaceOnUse">
<stop stop-color="#4F52FF"/>
<stop offset="1" stop-color="#4042E2"/>
</linearGradient>
<linearGradient id="paint65_linear_31_7" x1="319.318" y1="430.319" x2="295.028" y2="496.277" gradientUnits="userSpaceOnUse">
<stop stop-color="#FEBBBA"/>
<stop offset="1" stop-color="#FF928E"/>
</linearGradient>
<linearGradient id="paint66_linear_31_7" x1="378.511" y1="448.901" x2="315.234" y2="496.556" gradientUnits="userSpaceOnUse">
<stop stop-color="#09005D"/>
<stop offset="1" stop-color="#1A0F91"/>
</linearGradient>
<linearGradient id="paint67_linear_31_7" x1="321.184" y1="491.505" x2="304.642" y2="449.216" gradientUnits="userSpaceOnUse">
<stop stop-color="#09005D"/>
<stop offset="1" stop-color="#1A0F91"/>
</linearGradient>
<linearGradient id="paint68_linear_31_7" x1="327.114" y1="438.71" x2="326.554" y2="389.894" gradientUnits="userSpaceOnUse">
<stop stop-color="#FEBBBA"/>
<stop offset="1" stop-color="#FF928E"/>
</linearGradient>
<linearGradient id="paint69_linear_31_7" x1="367.15" y1="336.872" x2="326.6" y2="384.164" gradientUnits="userSpaceOnUse">
<stop stop-color="#09005D"/>
<stop offset="1" stop-color="#1A0F91"/>
</linearGradient>
<linearGradient id="paint70_linear_31_7" x1="335.968" y1="395.726" x2="293.703" y2="395.726" gradientUnits="userSpaceOnUse">
<stop stop-color="#FEBBBA"/>
<stop offset="1" stop-color="#FF928E"/>
</linearGradient>
<linearGradient id="paint71_linear_31_7" x1="335.967" y1="392.47" x2="293.703" y2="392.47" gradientUnits="userSpaceOnUse">
<stop stop-color="#FEBBBA"/>
<stop offset="1" stop-color="#FF928E"/>
</linearGradient>
<linearGradient id="paint72_linear_31_7" x1="366.501" y1="336.314" x2="325.95" y2="383.607" gradientUnits="userSpaceOnUse">
<stop stop-color="#09005D"/>
<stop offset="1" stop-color="#1A0F91"/>
</linearGradient>
<linearGradient id="paint73_linear_31_7" x1="335.968" y1="397.894" x2="293.703" y2="397.894" gradientUnits="userSpaceOnUse">
<stop stop-color="#FEBBBA"/>
<stop offset="1" stop-color="#FF928E"/>
</linearGradient>
<linearGradient id="paint74_linear_31_7" x1="364.522" y1="429.191" x2="319.51" y2="538.197" gradientUnits="userSpaceOnUse">
<stop stop-color="#FEBBBA"/>
<stop offset="1" stop-color="#FF928E"/>
</linearGradient>
<linearGradient id="paint75_linear_31_7" x1="335.717" y1="472.578" x2="326.797" y2="494.18" gradientUnits="userSpaceOnUse">
<stop stop-color="#FEBBBA"/>
<stop offset="1" stop-color="#FF928E"/>
</linearGradient>
<linearGradient id="paint76_linear_31_7" x1="300.177" y1="444.984" x2="243.434" y2="432.881" gradientUnits="userSpaceOnUse">
<stop stop-color="#FEBBBA"/>
<stop offset="1" stop-color="#FF928E"/>
</linearGradient>
</defs>
</svg>
